HIERARCHY
ROOT Pelvis
{
	OFFSET 0.000000 0.000000 0.000000
	CHANNELS 6 Xposition Yposition Zposition Xrotation Yrotation Zrotation
	JOINT LeftUpLeg_virtual
	{
		OFFSET 0.000000 0.000000 0.000000
		CHANNELS 3 Xrotation Yrotation Zrotation
		JOINT LeftUpLeg
		{
			OFFSET 18.735201 -5.666702 -4.541200
			CHANNELS 3 Xrotation Yrotation Zrotation
			JOINT LeftLeg
			{
				OFFSET -0.021200 -31.938179 0.493100
				CHANNELS 3 Xrotation Yrotation Zrotation
				JOINT LeftFoot
				{
					OFFSET 0.021200 -31.938179 -4.336299
					CHANNELS 3 Xrotation Yrotation Zrotation
					JOINT LeftToeBase
					{
						OFFSET 0.943001 -26.722000 15.023500
						CHANNELS 3 Xrotation Yrotation Zrotation
						End Site
						{
							OFFSET 0 0 0
						}
					}
				}
			}
		}
	}
	JOINT RightUpLeg_virtual
	{
		OFFSET 0.000000 0.000000 0.000000
		CHANNELS 3 Xrotation Yrotation Zrotation
		JOINT RightUpLeg
		{
			OFFSET -18.735201 -5.666702 -4.541200
			CHANNELS 3 Xrotation Yrotation Zrotation
			JOINT RightLeg
			{
				OFFSET 0.018946 -31.938133 0.493100
				CHANNELS 3 Xrotation Yrotation Zrotation
				JOINT RightFoot
				{
					OFFSET -0.018946 -31.938126 -4.336299
					CHANNELS 3 Xrotation Yrotation Zrotation
					JOINT RightToeBase
					{
						OFFSET -0.943001 -26.722004 15.023500
						CHANNELS 3 Xrotation Yrotation Zrotation
						End Site
						{
							OFFSET 0 0 0
						}
					}
				}
			}
		}
	}
	JOINT Hips_virtual
	{
		OFFSET 0.000000 0.000000 0.000000
		CHANNELS 3 Xrotation Yrotation Zrotation
		JOINT Hips
		{
			OFFSET -0.000000 -0.000000 -0.000000
			CHANNELS 3 Xrotation Yrotation Zrotation
			JOINT Spine
			{
				OFFSET 0.000000 10.199997 -0.299500
				CHANNELS 3 Xrotation Yrotation Zrotation
				JOINT Spine1
				{
					OFFSET 0.000000 11.900002 -1.516600
					CHANNELS 3 Xrotation Yrotation Zrotation
					JOINT Spine2
					{
						OFFSET 0.000000 13.600006 -2.842500
						CHANNELS 3 Xrotation Yrotation Zrotation
						JOINT Neck_virtual
						{
							OFFSET 0.000000 0.000000 0.000000
							CHANNELS 3 Xrotation Yrotation Zrotation
							JOINT Neck
							{
								OFFSET 0.000000 9.624100 -2.890100
								CHANNELS 3 Xrotation Yrotation Zrotation
								JOINT Head
								{
									OFFSET 0.000000 14.068802 -1.351900
									CHANNELS 3 Xrotation Yrotation Zrotation
									End Site
									{
										OFFSET 0 0 0
									}
								}
							}
						}
						JOINT LeftShoulder_virtual
						{
							OFFSET 0.000000 0.000000 0.000000
							CHANNELS 3 Xrotation Yrotation Zrotation
							JOINT LeftShoulder
							{
								OFFSET 15.263000 10.923401 -0.547700
								CHANNELS 3 Xrotation Yrotation Zrotation
								JOINT LeftArm
								{
									OFFSET 25.438599 -2.830597 -13.032500
									CHANNELS 3 Xrotation Yrotation Zrotation
									JOINT LeftForeArm
									{
										OFFSET 29.960503 0.000000 0.000000
										CHANNELS 3 Xrotation Yrotation Zrotation
										JOINT LeftHand
										{
											OFFSET 27.849251 0.000000 0.000000
											CHANNELS 3 Xrotation Yrotation Zrotation
											End Site
											{
												OFFSET 0 0 0
											}
										}
									}
								}
							}
						}
						JOINT RightShoulder_virtual
						{
							OFFSET 0.000000 0.000000 0.000000
							CHANNELS 3 Xrotation Yrotation Zrotation
							JOINT RightShoulder
							{
								OFFSET -15.263000 10.923401 -0.547700
								CHANNELS 3 Xrotation Yrotation Zrotation
								JOINT RightArm
								{
									OFFSET -25.438599 -2.830597 -13.032500
									CHANNELS 3 Xrotation Yrotation Zrotation
									JOINT RightForeArm
									{
										OFFSET -29.960503 0.000000 0.000000
										CHANNELS 3 Xrotation Yrotation Zrotation
										JOINT RightHand
										{
											OFFSET -27.849251 0.000000 0.000000
											CHANNELS 3 Xrotation Yrotation Zrotation
											End Site
											{
												OFFSET 0 0 0
											}
										}
									}
								}
							}
						}
					}
				}
			}
		}
	}
}
MOTION
Frames: 6
Frame Time: 0.03333333
-6.106013 91.342697 5.975554 0.000000 0.000000 0.000000 4.353982 -62.634986 0.886355 -40.382240 8.659754 36.912661 37.408717 -10.399793 -7.521269 16.618086 -5.547287 -15.209537 0.000000 0.000000 0.000000 4.340378 -61.986624 1.117643 -17.726911 -6.485146 -15.212045 45.190956 -4.266423 -4.445954 -28.795138 -3.912710 -4.257630 0.000000 0.000000 0.000000 4.935716 -60.888036 1.311184 -0.912298 0.145798 0.046986 14.703206 13.574379 -0.858415 -4.619808 -2.090275 -0.982540 0.000000 0.000000 0.000000 -11.879604 -1.112525 -1.572278 -7.110717 6.079217 4.440038 0.000000 0.000000 0.000000 -8.038986 -2.869516 -2.687350 -37.768122 -11.625242 -12.085676 50.570219 -9.052944 -48.305577 94.581140 -69.995697 100.838147 0.000000 0.000000 0.000000 -15.483421 -1.215574 -1.313112 13.564030 36.871130 17.020031 24.904820 -3.173516 62.661310 -41.727579 76.075699 12.431853 0.000000 0.000000 0.000000 
-6.104704 91.346603 6.039986 0.000000 0.000000 0.000000 4.228461 -62.282528 0.670425 -40.345374 8.669913 36.891160 36.801425 -10.053797 -7.744032 15.799182 -5.230286 -15.270932 0.000000 0.000000 0.000000 4.074615 -61.577721 0.796580 -17.821299 -6.733040 -15.054674 45.501757 -4.490709 -4.457577 -29.631160 -3.806951 -4.872029 0.000000 0.000000 0.000000 4.705261 -60.568799 0.960637 -0.895005 0.091026 0.057585 14.759907 13.511280 -0.927390 -4.727994 -2.165153 -1.167474 0.000000 0.000000 0.000000 -11.793387 -1.126838 -1.582855 -7.034364 6.062986 4.272815 0.000000 0.000000 0.000000 -8.116999 -2.896972 -2.865762 -37.774542 -11.110521 -12.178464 49.957749 -8.801826 -47.426805 87.830379 -70.034533 93.622673 0.000000 0.000000 0.000000 -15.482258 -1.231073 -1.317021 13.637694 36.768944 17.017430 24.749523 -2.703384 63.231357 -42.446402 75.859694 13.308590 0.000000 0.000000 0.000000 
-6.031817 91.251396 6.189213 0.000000 0.000000 0.000000 3.910278 -61.401406 0.167270 -40.268265 8.732274 36.847863 36.320467 -9.553579 -7.970908 15.103182 -4.712497 -14.776365 0.000000 0.000000 0.000000 3.647253 -60.654225 0.241698 -17.441095 -7.325942 -15.089329 45.964841 -4.573854 -4.473139 -31.349308 -3.389675 -4.899230 0.000000 0.000000 0.000000 4.293302 -59.932806 0.431690 -0.886604 0.067137 0.075628 14.827694 13.403941 -1.036225 -4.807040 -2.241336 -1.269134 0.000000 0.000000 0.000000 -11.817868 -1.121198 -1.549421 -6.975489 6.202801 3.923431 0.000000 0.000000 0.000000 -7.910781 -2.889132 -2.883580 -38.113193 -11.084263 -12.546213 50.378615 -8.531523 -45.624923 81.541544 -70.394826 86.502181 0.000000 0.000000 0.000000 -15.184368 -1.227857 -1.246580 13.957339 36.512125 16.688380 25.376781 -2.280440 62.924258 -44.899608 76.201668 16.013985 0.000000 0.000000 0.000000 
-5.911335 91.071968 6.410526 0.000000 0.000000 0.000000 3.505234 -60.189041 -0.469332 -40.291313 8.708639 36.742787 36.332894 -9.063639 -8.090289 14.500457 -4.172221 -13.897678 0.000000 0.000000 0.000000 3.176128 -59.459898 -0.400737 -16.840540 -8.000154 -15.311604 46.656151 -4.387665 -4.481231 -33.408508 -2.662286 -3.981299 0.000000 0.000000 0.000000 3.817138 -59.076628 -0.154114 -0.884163 0.098362 0.083872 14.858219 13.230897 -1.129629 -4.830228 -2.357059 -1.216451 0.000000 0.000000 0.000000 -11.909799 -1.150515 -1.427885 -6.860470 6.487737 3.429426 0.000000 0.000000 0.000000 -7.538000 -2.877770 -2.726295 -38.660886 -11.327198 -13.279163 52.170747 -8.316056 -43.264310 76.202870 -71.209517 80.093530 0.000000 0.000000 0.000000 -14.796114 -1.258252 -1.040671 14.535686 36.171989 15.883499 26.799985 -1.464533 61.610308 -48.253989 76.715237 19.764657 0.000000 0.000000 0.000000 
-5.766314 90.874641 6.698597 0.000000 0.000000 0.000000 3.136996 -58.893183 -1.058222 -40.577864 8.550372 36.693634 36.928480 -8.752219 -8.112618 13.849479 -3.898784 -13.022761 0.000000 0.000000 0.000000 2.765778 -58.240080 -0.989671 -16.310261 -8.729693 -15.765646 47.533021 -3.998340 -4.373704 -35.499512 -1.747846 -2.357999 0.000000 0.000000 0.000000 3.394269 -58.140551 -0.698901 -0.884138 0.154562 0.086001 14.832254 12.927157 -1.182620 -4.875460 -2.510616 -0.932076 0.000000 0.000000 0.000000 -11.953473 -1.251388 -1.144879 -6.607627 6.904068 2.825237 0.000000 0.000000 0.000000 -7.103249 -2.889634 -2.380609 -39.282225 -11.409672 -14.352142 55.269467 -8.200831 -40.774122 71.690512 -72.658473 74.400759 0.000000 0.000000 0.000000 -14.610415 -1.370780 -0.611209 15.269270 35.920668 14.622617 28.819147 0.296741 59.387648 -51.127384 76.961964 23.091912 0.000000 0.000000 0.000000 
-5.656005 90.658897 7.017120 0.000000 0.000000 0.000000 2.903846 -57.738642 -1.478691 -41.198950 8.214601 36.767987 38.054761 -8.677404 -8.091070 13.114533 -4.050604 -12.429275 0.000000 0.000000 0.000000 2.481055 -57.109548 -1.435461 -16.097289 -9.515712 -16.404050 48.728482 -3.536787 -4.113323 -37.728015 -0.798839 -0.635232 0.000000 0.000000 0.000000 3.073817 -57.312042 -1.132187 -0.879118 0.203930 0.077792 14.751766 12.466873 -1.159714 -5.044035 -2.699373 -0.400651 0.000000 0.000000 0.000000 -11.937231 -1.424469 -0.647328 -6.181512 7.418729 2.152951 0.000000 0.000000 0.000000 -6.745867 -2.955636 -1.868437 -39.878739 -11.107610 -15.631491 59.139582 -8.115408 -38.662258 66.025267 -74.585584 67.619453 0.000000 0.000000 0.000000 -14.819796 -1.562735 0.064349 15.967150 35.898190 12.980284 31.148914 3.158659 56.389987 -52.910047 76.915416 25.380679 0.000000 0.000000 0.000000 
